<svg xmlns="http://www.w3.org/2000/svg" viewBox="0 0 90 90"><defs><style>.cls-1{fill:#404041;}.cls-2{fill:#e9573f;}.cls-3{fill:#fc6e51;}</style></defs><title>ladybird</title><g id="ladybird"><g id="ladybird-2" data-name="ladybird"><path class="cls-1" d="M50.15,22.25l-.26,0a1.32,1.32,0,0,1-1-1.56c1.76-9,9-15.47,17.57-15.66h0a1.33,1.33,0,0,1,0,2.65c-7.46.17-13.5,5.6-15,13.52a1.32,1.32,0,0,1-1.29,1.07Z"/><path class="cls-1" d="M39.85,22.25a1.32,1.32,0,0,1-1.29-1.07C37,13.25,31,7.82,23.51,7.65A1.33,1.33,0,0,1,23.57,5c8.59.19,15.81,6.63,17.57,15.66a1.32,1.32,0,0,1-1,1.56l-.25,0Z"/><path class="cls-1" d="M59.41,33.67A28.82,28.82,0,0,0,45,29.78,28.53,28.53,0,0,0,31.82,33l-2.31,1.19.13-2.61a16,16,0,0,1,32,.77V35Z"/><path class="cls-2" d="M45,84.62a24,24,0,0,1-10.24-2.25l-1.31-.6L34,80.43c1.19-3,2.51-7.27,4.39-13.71,1.65-5.66,3.53-12.08,5.21-15.81l1.37-3,1.37,3C48,54.61,49.87,61,51.52,66.57c1.93,6.55,3.27,10.89,4.47,13.86l.55,1.35-1.31.6A24,24,0,0,1,45,84.62Z"/><path class="cls-3" d="M30.23,84.37A29.36,29.36,0,0,1,45,29.78,29.36,29.36,0,0,1,59.77,84.37L58.71,85l-.83-.91A8.61,8.61,0,0,1,56.63,82l-.06-.12,0-.13-.06-.08-.06-.14c-1.56-3.59-3.48-10.11-4.89-14.86-2.15-7.3-4.37-14.84-6.36-17.89l-.11-.17-.06-.2C42.94,51.12,40.62,59,38.38,66.71a155,155,0,0,1-4.83,14.81l-.05.12,0,.06,0,.1,0,.08a8.81,8.81,0,0,1-1.28,2.19l-.82.93Z"/><ellipse class="cls-1" cx="28.03" cy="55.39" rx="6.01" ry="6.06"/><ellipse class="cls-1" cx="61.97" cy="55.39" rx="6.01" ry="6.06"/><ellipse class="cls-1" cx="53.34" cy="39.61" rx="4.29" ry="4.32"/><ellipse class="cls-1" cx="36.66" cy="39.61" rx="4.29" ry="4.32"/><ellipse class="cls-1" cx="61.61" cy="71.31" rx="4.29" ry="4.32"/><ellipse class="cls-1" cx="28.39" cy="71.31" rx="4.29" ry="4.32"/></g></g></svg>